<?xml version="1.0" standalone="no"?>
<!DOCTYPE svg PUBLIC "-//W3C//DTD SVG 20010904//EN"
 "http://www.w3.org/TR/2001/REC-SVG-20010904/DTD/svg10.dtd">
<svg version="1.0" xmlns="http://www.w3.org/2000/svg"
 width="22.000000pt" height="512.000000pt" viewBox="0 0 512.000000 512.000000"
 preserveAspectRatio="xMidYMid meet">

<g transform="translate(0.000000,512.000000) scale(0.100000,-0.100000)"
fill="#000000" stroke="none">
<path d="M2287 4885 c-50 -17 -85 -50 -108 -100 -26 -57 -26 -213 0 -271 22
-47 73 -91 125 -105 l36 -10 0 -79 c0 -75 -1 -80 -22 -84 -13 -2 -76 -13 -140
-25 -248 -45 -503 -146 -708 -279 -242 -158 -471 -391 -620 -630 -437 -706
-390 -1611 119 -2277 72 -94 227 -251 332 -335 604 -484 1440 -574 2130 -231
599 298 998 853 1095 1521 25 173 15 490 -21 660 -63 303 -182 564 -380 836
-7 11 4 28 47 70 l56 57 41 -17 c147 -58 301 47 301 206 0 65 -43 127 -188
270 -89 89 -153 144 -182 157 -178 81 -357 -96 -284 -280 l17 -41 -55 -55 -55
-55 -79 60 c-257 194 -584 331 -892 375 l-87 13 0 83 0 83 39 13 c50 17 104
70 117 115 6 20 9 83 7 141 -3 93 -6 110 -28 142 -14 22 -46 48 -74 62 -49 24
-55 25 -275 25 -165 -1 -236 -5 -264 -15z m484 -135 c17 -9 19 -22 19 -100 0
-78 -2 -91 -19 -100 -12 -6 -103 -10 -227 -10 -251 0 -244 -3 -244 108 0 116
-8 112 242 112 125 0 217 -4 229 -10z m-151 -425 l0 -75 -70 0 -70 0 0 75 0
75 70 0 70 0 0 -75z m95 -225 c382 -37 734 -184 1030 -432 321 -268 541 -642
626 -1064 30 -152 38 -454 15 -610 -59 -405 -241 -769 -527 -1055 -493 -495
-1224 -669 -1892 -452 -144 47 -376 164 -496 250 -113 81 -278 237 -363 342
-533 659 -557 1571 -61 2263 73 102 232 269 332 350 378 305 861 452 1336 408z
m1572 -143 c156 -156 166 -175 118 -222 -47 -48 -66 -38 -222 117 -119 119
-143 148 -143 172 0 40 35 76 74 76 26 0 52 -22 173 -143z m-209 -304 c-29
-29 -55 -52 -58 -51 -3 2 -25 24 -48 49 l-43 47 53 50 53 51 48 -47 47 -46
-52 -53z"/>
<path d="M2413 3850 c-827 -71 -1463 -767 -1463 -1600 0 -760 523 -1405 1272
-1571 67 -15 145 -22 278 -26 159 -5 202 -2 309 16 674 115 1196 636 1311
1305 23 134 27 372 9 503 -73 539 -434 1020 -929 1239 -245 108 -528 156 -787
134z m67 -236 c0 -71 3 -87 20 -104 27 -27 66 -25 95 5 23 22 25 32 25 108 l0
85 48 -5 c177 -17 354 -65 508 -139 95 -45 240 -138 309 -198 l40 -35 -51 -53
c-78 -80 -85 -105 -46 -150 30 -35 69 -23 137 42 l62 61 40 -48 c181 -218 307
-518 330 -788 l6 -75 -87 0 c-98 0 -126 -16 -126 -70 0 -54 28 -70 126 -70
l87 0 -7 -77 c-24 -269 -140 -550 -319 -771 l-51 -63 -61 61 c-65 65 -107 78
-137 43 -39 -46 -32 -71 46 -151 l51 -53 -35 -30 c-221 -185 -529 -315 -797
-336 l-73 -6 0 80 c0 95 -20 133 -71 133 -53 0 -69 -29 -69 -125 l0 -85 -43 0
c-127 0 -366 64 -524 140 -89 43 -233 137 -301 195 l-43 37 61 63 c64 67 72
93 44 133 -11 16 -25 22 -50 22 -29 0 -46 -10 -96 -57 l-60 -58 -40 45 c-177
202 -302 504 -332 803 l-6 57 85 0 c78 0 88 2 110 25 30 30 31 54 4 89 -19 25
-25 26 -110 26 l-90 0 6 63 c30 288 149 578 324 788 l47 56 62 -58 c69 -65
106 -75 142 -39 36 36 26 68 -41 136 l-60 61 48 43 c156 137 395 254 626 305
79 17 216 34 230 27 4 -2 7 -41 7 -88z"/>
<path d="M2500 3210 c-19 -19 -20 -33 -20 -355 l0 -335 -45 -21 c-52 -24 -120
-95 -142 -147 -20 -48 -20 -156 1 -205 42 -96 146 -167 247 -167 115 0 198 50
248 152 36 71 40 137 14 213 -20 59 -93 136 -146 156 l-37 13 0 333 0 334 -25
24 c-29 30 -68 32 -95 5z m124 -851 c104 -81 51 -239 -79 -239 -95 0 -154 96
-116 188 28 67 138 96 195 51z"/>
</g>
</svg>
